<?xml version="1.0" standalone="no"?>
<!DOCTYPE svg PUBLIC "-//W3C//DTD SVG 20010904//EN"
 "http://www.w3.org/TR/2001/REC-SVG-20010904/DTD/svg10.dtd">
<svg version="1.0" xmlns="http://www.w3.org/2000/svg"
 width="200.000000pt" height="200.000000pt" viewBox="0 0 200.000000 200.000000"
 preserveAspectRatio="xMidYMid meet">
<metadata>
Created by potrace 1.14, written by Peter Selinger 2001-2017
</metadata>
<g transform="translate(0.000000,200.000000) scale(0.100000,-0.100000)"
fill="#000000" stroke="none">
<path d="M1829 1848 c-16 -24 -37 -52 -45 -63 -8 -11 -56 -78 -107 -150 -51
-71 -102 -143 -114 -160 -12 -16 -99 -138 -192 -270 -94 -132 -177 -248 -185
-258 -8 -10 -52 -72 -97 -138 -46 -65 -87 -119 -91 -119 -4 0 -75 98 -159 218
-85 119 -157 219 -161 220 -4 2 -8 7 -8 12 0 5 -28 47 -62 95 -35 47 -70 97
-78 110 -42 65 -333 475 -359 505 l-30 35 -1 -892 0 -893 114 0 114 0 -1 540
c-1 297 1 540 4 540 3 0 34 -39 68 -87 34 -49 69 -97 77 -108 55 -75 258 -358
354 -493 63 -89 118 -162 122 -162 4 0 53 64 108 143 113 161 104 147 202 284
40 56 129 183 198 282 69 99 128 180 132 180 4 1 7 -250 5 -556 l-2 -558 115
0 115 0 1 893 c1 490 0 892 -2 892 -2 0 -18 -19 -35 -42z"/>
</g>
</svg>
